<svg version="1.2" baseProfile="tiny-ps" xmlns="http://www.w3.org/2000/svg" viewBox="0 0 1104 434" width="1104" height="434">
	<title>welcome-bg-2x-svg</title>
	<style>
		tspan { white-space:pre }
		.shp0 { fill: #100f12;stroke: #000000 } 
	</style>
	<path id="Shape_318_1" fill-rule="evenodd" class="shp0" d="M890 153.31C890 153.31 887.9 196.73 847.3 216.32C846.96 216.48 846.62 216.65 846.27 216.81C804.67 236.15 757.74 211.35 748.13 201.92L774.8 196.96C774.8 196.96 741.74 191.01 730 164.22C730 164.22 756.67 171.17 775.87 172.16C775.87 172.16 756.67 161.25 758.8 148.35C758.8 148.35 792.94 167.2 816.4 146.36C816.4 146.36 838.27 130.99 845.2 99.73C845.2 99.73 857.47 70.46 883.6 66L890 153.31Z" />
	<use id="L1" href="#img1" transform="matrix(1,0,0,1,259,53)"/>
</svg>